<svg width="17" height="17" viewBox="0 0 17 17" fill="none" xmlns="http://www.w3.org/2000/svg">
<path fill-rule="evenodd" clip-rule="evenodd" d="M0.256194 0.984658C0.514302 0.722087 0.936397 0.71847 1.19897 0.976578L8.11945 7.77945L14.9223 0.858965C15.1804 0.596394 15.6025 0.592776 15.8651 0.850885C16.1277 1.10899 16.1313 1.53109 15.8732 1.79366L9.07031 8.71414L15.9908 15.517C16.2534 15.7751 16.257 16.1972 15.9989 16.4598C15.7408 16.7224 15.3187 16.726 15.0561 16.4679L8.13561 9.665L1.33274 16.5855C1.07463 16.8481 0.652538 16.8517 0.389967 16.5936C0.127396 16.3355 0.123778 15.9134 0.381887 15.6508L7.18476 8.7303L0.264273 1.92743C0.0017022 1.66932 -0.00191528 1.24723 0.256194 0.984658Z" fill="#271A45"/>
</svg>
